<svg xmlns="http://www.w3.org/2000/svg" id="svg3368" width="242.589" height="108.4" version="1.1">
	<g id="g3355">
		<style id="style2" type="text/css">
			.st1 {
				fill: #a9dde0
			}

			.st2 {
				fill: #2589ca
			}

			.st3 {
				fill: #3653a4
			}
		</style>
		<g id="g187">
			<radialGradient id="SVGID_1_" cx="-885.783" cy="352.247" r="3.374"
				gradientTransform="translate(14279.635 -5602.752) scale(16.0596)" gradientUnits="userSpaceOnUse">
				<stop id="stop12" offset="0" style="stop-color:#01579b" />
				<stop id="stop14" offset="1" style="stop-color:#03a9f4" />
			</radialGradient>
			<path id="path17"
				d="M54.5 64.4c-5.7 0-10.4-4.6-10.4-10.3 0-5.7 4.6-10.4 10.3-10.4 5.7 0 10.4 4.6 10.4 10.3 0 2.8-1.1 5.4-3 7.4s-4.5 3-7.3 3z"
				style="fill:url(#SVGID_1_)" />
			<radialGradient id="SVGID_2_" cx="-879.674" cy="358.976" r="3.72"
				gradientTransform="matrix(14.5677 0 0 14.5676 12869.116 -5175.213)" gradientUnits="userSpaceOnUse">
				<stop id="stop19" offset="0" style="stop-color:#01579b" />
				<stop id="stop21" offset="1" style="stop-color:#03a9f4" />
			</radialGradient>
			<path id="path24"
				d="M54.5 87.6c-3.8 0-7.2-2.3-8.7-5.8-1.5-3.5-.7-7.5 2-10.2 2.7-2.7 6.8-3.5 10.3-2 3.5 1.5 5.8 4.9 5.8 8.7 0 5.1-4.2 9.3-9.4 9.3z"
				style="fill:url(#SVGID_2_)" />
			<radialGradient id="SVGID_3_" cx="-877.914" cy="360.871" r="3.746"
				gradientTransform="translate(12754.668 -5166.342) scale(14.4665)" gradientUnits="userSpaceOnUse">
				<stop id="stop26" offset="0" style="stop-color:#01579b" />
				<stop id="stop28" offset="1" style="stop-color:#03a9f4" />
			</radialGradient>
			<path id="path31"
				d="M20.9 53.9c0-3.8 2.3-7.1 5.8-8.6s7.5-.6 10.2 2.1c2.7 2.7 3.4 6.7 1.9 10.2-1.5 3.5-4.9 5.7-8.7 5.7-2.5 0-4.9-1-6.6-2.8-1.7-1.7-2.7-4.1-2.6-6.6z"
				style="fill:url(#SVGID_3_)" />
			<radialGradient id="SVGID_4_" cx="-879.111" cy="362.735" r="3.826"
				gradientTransform="translate(12504.983 -5083.149) scale(14.1628)" gradientUnits="userSpaceOnUse">
				<stop id="stop33" offset="0" style="stop-color:#01579b" />
				<stop id="stop35" offset="1" style="stop-color:#03a9f4" />
			</radialGradient>
			<path id="path38"
				d="M87.7 54c0 5-4.1 9.1-9.2 9.1S69.4 59 69.4 54s4.1-9.1 9.2-9.1c2.4 0 4.8 1 6.5 2.7 1.7 1.7 2.7 4 2.6 6.4z"
				style="fill:url(#SVGID_4_)" />
			<radialGradient id="SVGID_5_" cx="-877.437" cy="364.531" r="3.847"
				gradientTransform="matrix(14.0876 0 0 14.0877 12415.329 -5081.21)" gradientUnits="userSpaceOnUse">
				<stop id="stop40" offset="0" style="stop-color:#01579b" />
				<stop id="stop42" offset="1" style="stop-color:#03a9f4" />
			</radialGradient>
			<path id="path45"
				d="M54.4 39.1c-5-.1-9-4.2-9-9.2.1-5 4.2-9 9.2-8.9 5 .1 9 4.2 9 9.2 0 2.4-1 4.7-2.7 6.4-1.7 1.6-4.1 2.5-6.5 2.5z"
				style="fill:url(#SVGID_5_)" />
			<radialGradient id="SVGID_6_" cx="-872.009" cy="367.059" r="4.074"
				gradientTransform="translate(11654.73 -4828.824) scale(13.3031)" gradientUnits="userSpaceOnUse">
				<stop id="stop47" offset="0" style="stop-color:#01579b" />
				<stop id="stop49" offset="1" style="stop-color:#03a9f4" />
			</radialGradient>
			<path id="path52"
				d="M30.2 86.8c-3.5 0-6.6-2.1-7.9-5.3-1.3-3.2-.6-6.9 1.9-9.3 2.5-2.4 6.2-3.2 9.4-1.8 3.2 1.3 5.3 4.5 5.3 7.9-.1 4.7-4 8.5-8.7 8.5z"
				style="fill:url(#SVGID_6_)" />
			<radialGradient id="SVGID_7_" cx="-873.457" cy="368.865" r="4.153"
				gradientTransform="translate(11452.818 -4759.468) scale(13.0499)" gradientUnits="userSpaceOnUse">
				<stop id="stop54" offset="0" style="stop-color:#01579b" />
				<stop id="stop56" offset="1" style="stop-color:#03a9f4" />
			</radialGradient>
			<path id="path59"
				d="M78.7 69.8c4.7 0 8.4 3.8 8.4 8.5 0 4.6-3.8 8.4-8.5 8.3-4.7 0-8.4-3.8-8.4-8.5.1-4.6 3.8-8.3 8.5-8.3z"
				style="fill:url(#SVGID_7_)" />
			<radialGradient id="SVGID_8_" cx="-870.149" cy="372.307" r="4.177"
				gradientTransform="translate(11343.728 -4776.147) scale(12.9741)" gradientUnits="userSpaceOnUse">
				<stop id="stop61" offset="0" style="stop-color:#01579b" />
				<stop id="stop63" offset="1" style="stop-color:#03a9f4" />
			</radialGradient>
			<path id="path66"
				d="M30.2 38.3c-4.6 0-8.4-3.8-8.4-8.4 0-4.6 3.8-8.3 8.4-8.3 4.6 0 8.4 3.8 8.4 8.4 0 4.6-3.8 8.3-8.4 8.3z"
				style="fill:url(#SVGID_8_)" />
			<radialGradient id="SVGID_9_" cx="-871.154" cy="374.866" r="4.285"
				gradientTransform="translate(11070.364 -4686.093) scale(12.6453)" gradientUnits="userSpaceOnUse">
				<stop id="stop68" offset="0" style="stop-color:#01579b" />
				<stop id="stop70" offset="1" style="stop-color:#03a9f4" />
			</radialGradient>
			<path id="path73"
				d="M86.8 30c0 4.5-3.7 8.1-8.2 8.1-4.5 0-8.2-3.6-8.2-8.1s3.7-8.1 8.2-8.1c4.5 0 8.1 3.6 8.2 8.1z"
				style="fill:url(#SVGID_9_)" />
			<radialGradient id="SVGID_10_" cx="-857.346" cy="386.195" r="4.983"
				gradientTransform="translate(9377.96 -4145.677) scale(10.875)" gradientUnits="userSpaceOnUse">
				<stop id="stop75" offset="0" style="stop-color:#01579b" />
				<stop id="stop77" offset="1" style="stop-color:#03a9f4" />
			</radialGradient>
			<path id="path80"
				d="M54.5 108.4c-3.9 0-7-3.1-7.1-6.9 0-3.9 3.1-7 7-7.1 3.9 0 7 3.1 7.1 6.9 0 1.9-.7 3.7-2 5-1.3 1.3-3.1 2.1-5 2.1z"
				style="fill:url(#SVGID_10_)" />
			<radialGradient id="SVGID_11_" cx="-853.967" cy="389.578" r="4.983"
				gradientTransform="translate(9341.21 -4182.464) scale(10.875)" gradientUnits="userSpaceOnUse">
				<stop id="stop82" offset="0" style="stop-color:#01579b" />
				<stop id="stop84" offset="1" style="stop-color:#03a9f4" />
			</radialGradient>
			<path id="path87" d="M7 61c-3.9 0-7-3.1-7-7s3.1-7 7-7 7 3.1 7 7-3.1 7-7 7z" style="fill:url(#SVGID_11_)" />
			<radialGradient id="SVGID_12_" cx="-852.267" cy="399.827" r="5.264"
				gradientTransform="translate(8817.304 -4056.828) scale(10.282)" gradientUnits="userSpaceOnUse">
				<stop id="stop89" offset="0" style="stop-color:#01579b" />
				<stop id="stop91" offset="1" style="stop-color:#03a9f4" />
			</radialGradient>
			<path id="path94"
				d="M54.5 0c1.8 0 3.5.6 4.8 1.9 1.3 1.2 2 3 1.9 4.7 0 2.4-1.3 4.6-3.3 5.7-2.1 1.2-4.6 1.2-6.6 0S47.9 9 47.9 6.6c0-1.8.7-3.5 1.9-4.7C51 .7 52.7 0 54.5 0Z"
				style="fill:url(#SVGID_12_)" />
			<radialGradient id="SVGID_13_" cx="-855.95" cy="396.104" r="5.264"
				gradientTransform="translate(8865.556 -4023.343) scale(10.2941)" gradientUnits="userSpaceOnUse">
				<stop id="stop96" offset="0" style="stop-color:#01579b" />
				<stop id="stop98" offset="1" style="stop-color:#03a9f4" />
			</radialGradient>
			<path id="path101"
				d="M102 47.4c3.7 0 6.6 3 6.6 6.6 0 3.7-3 6.6-6.6 6.6-3.6 0-6.6-3-6.6-6.6 0-1.8.7-3.5 1.9-4.7 1.3-1.3 3-2 4.7-1.9z"
				style="fill:url(#SVGID_13_)" />
			<radialGradient id="SVGID_14_" cx="-847.164" cy="396.76" r="5.452"
				gradientTransform="translate(8474.734 -3889.398) scale(9.9395)" gradientUnits="userSpaceOnUse">
				<stop id="stop103" offset="0" style="stop-color:#01579b" />
				<stop id="stop105" offset="1" style="stop-color:#03a9f4" />
			</radialGradient>
			<path id="path108"
				d="M30.2 95c2.6 0 4.9 1.6 5.9 4s.4 5.2-1.4 7c-1.8 1.8-4.6 2.4-7 1.4-2.4-1-4-3.3-3.9-5.9 0-1.7.7-3.3 1.9-4.5 1.2-1.2 2.8-2 4.5-2z"
				style="fill:url(#SVGID_14_)" />
			<radialGradient id="SVGID_15_" cx="-844.841" cy="399.227" r="5.48"
				gradientTransform="translate(8408.668 -3893.643) scale(9.8887)" gradientUnits="userSpaceOnUse">
				<stop id="stop110" offset="0" style="stop-color:#01579b" />
				<stop id="stop112" offset="1" style="stop-color:#03a9f4" />
			</radialGradient>
			<path id="path115"
				d="M6.9 84.4C3.4 84.4.5 81.5.5 78c0-3.5 2.9-6.4 6.4-6.3 3.5.1 6.4 2.9 6.4 6.4 0 1.7-.7 3.3-1.9 4.5-1.1 1.1-2.8 1.8-4.5 1.8z"
				style="fill:url(#SVGID_15_)" />
			<radialGradient id="SVGID_16_" cx="-848.468" cy="399.968" r="5.595"
				gradientTransform="translate(8272.994 -3820.1) scale(9.6865)" gradientUnits="userSpaceOnUse">
				<stop id="stop117" offset="0" style="stop-color:#01579b" />
				<stop id="stop119" offset="1" style="stop-color:#03a9f4" />
			</radialGradient>
			<path id="path122"
				d="M78.6 107.6c-3.4 0-6.2-2.8-6.2-6.3s2.8-6.2 6.3-6.2c3.4 0 6.2 2.8 6.2 6.3 0 1.7-.7 3.3-1.9 4.4-1.1 1.2-2.8 1.8-4.4 1.8z"
				style="fill:url(#SVGID_16_)" />
			<radialGradient id="SVGID_17_" cx="-842.011" cy="406.734" r="5.498"
				gradientTransform="translate(8146.474 -3854.719) scale(9.6105)" gradientUnits="userSpaceOnUse">
				<stop id="stop124" offset="0" style="stop-color:#01579b" />
				<stop id="stop126" offset="1" style="stop-color:#03a9f4" />
			</radialGradient>
			<path id="path129"
				d="M13.2 30c0 1.6-.6 3.2-1.8 4.4-1.2 1.2-2.8 1.8-4.4 1.8-2.3.1-4.5-1-5.6-3-1.1-2-1.2-4.4 0-6.4s3.3-3.1 5.6-3c1.7 0 3.2.6 4.4 1.8 1.1 1.2 1.8 2.8 1.8 4.4z"
				style="fill:url(#SVGID_17_)" />
			<radialGradient id="SVGID_18_" cx="-839.577" cy="414.251" r="5.815"
				gradientTransform="translate(7799.596 -3767.348) scale(9.2252)" gradientUnits="userSpaceOnUse">
				<stop id="stop131" offset="0" style="stop-color:#01579b" />
				<stop id="stop133" offset="1" style="stop-color:#03a9f4" />
			</radialGradient>
			<path id="path136" d="M30.2.6c1.6 0 3.1.6 4.2 1.7s1.8 2.6 1.8 4.2c0 3.3-2.7 6-6 6s-6-2.7-6-6 2.7-5.9 6-5.9z"
				style="fill:url(#SVGID_18_)" />
			<radialGradient id="SVGID_19_" cx="-846.461" cy="407.039" r="5.822"
				gradientTransform="translate(7932.355 -3734.11) scale(9.307)" gradientUnits="userSpaceOnUse">
				<stop id="stop138" offset="0" style="stop-color:#01579b" />
				<stop id="stop140" offset="1" style="stop-color:#03a9f4" />
			</radialGradient>
			<path id="path143"
				d="M102.1 84.2c-3.3 0-6-2.7-6-6s2.6-6 6-6 6 2.6 6.1 5.9c0 1.6-.6 3.1-1.7 4.3-1.3 1.2-2.8 1.8-4.4 1.8z"
				style="fill:url(#SVGID_19_)" />
			<radialGradient id="SVGID_20_" cx="-843.42" cy="415.274" r="6.002"
				gradientTransform="translate(7670.064 -3695.568) scale(9.0296)" gradientUnits="userSpaceOnUse">
				<stop id="stop145" offset="0" style="stop-color:#01579b" />
				<stop id="stop147" offset="1" style="stop-color:#03a9f4" />
			</radialGradient>
			<path id="path150"
				d="M101.9 35.8c-2.4-.1-4.5-1.5-5.3-3.7-.8-2.2-.3-4.7 1.4-6.3 1.7-1.6 4.2-2 6.4-1.1 2.2 1 3.5 3.1 3.4 5.5 0 1.5-.7 3-1.8 4-1.1 1.1-2.6 1.7-4.1 1.6z"
				style="fill:url(#SVGID_20_)" />
			<radialGradient id="SVGID_21_" cx="-841.546" cy="417.095" r="5.994"
				gradientTransform="translate(7663.091 -3716.93) scale(9.0414)" gradientUnits="userSpaceOnUse">
				<stop id="stop152" offset="0" style="stop-color:#01579b" />
				<stop id="stop154" offset="1" style="stop-color:#03a9f4" />
			</radialGradient>
			<path id="path157"
				d="M84.4 6.7c0 3.2-2.6 5.8-5.8 5.8-3.2 0-5.8-2.6-5.8-5.8 0-3.2 2.6-5.8 5.8-5.8 3.2 0 5.8 2.5 5.8 5.8z"
				style="fill:url(#SVGID_21_)" />
			<radialGradient id="SVGID_22_" cx="-797.586" cy="455.396" r="8.056"
				gradientTransform="translate(5420.165 -3009.524) scale(6.7276)" gradientUnits="userSpaceOnUse">
				<stop id="stop159" offset="0" style="stop-color:#01579b" />
				<stop id="stop161" offset="1" style="stop-color:#03a9f4" />
			</radialGradient>
			<path id="path164"
				d="M11.4 101.4c0 2.4-1.9 4.3-4.3 4.3s-4.4-1.9-4.4-4.3S4.6 97.1 7 97c1.2 0 2.3.4 3.1 1.2.8.8 1.3 2 1.3 3.2z"
				style="fill:url(#SVGID_22_)" />
			<radialGradient id="SVGID_23_" cx="-796.17" cy="471.761" r="8.782"
				gradientTransform="translate(4967.579 -2857.087) scale(6.1711)" gradientUnits="userSpaceOnUse">
				<stop id="stop166" offset="0" style="stop-color:#01579b" />
				<stop id="stop168" offset="1" style="stop-color:#03a9f4" />
			</radialGradient>
			<path id="path171"
				d="M106 101.4c0 1.6-1 3.1-2.4 3.7-1.5.6-3.2.3-4.3-.9-1.1-1.1-1.5-2.8-.9-4.3s2.1-2.5 3.7-2.5c1.1 0 2.1.4 2.8 1.1.7.8 1.1 1.8 1.1 2.9z"
				style="fill:url(#SVGID_23_)" />
			<radialGradient id="SVGID_24_" cx="-780.865" cy="488.079" r="8.966"
				gradientTransform="translate(4774.133 -2895.903) scale(6.0443)" gradientUnits="userSpaceOnUse">
				<stop id="stop173" offset="0" style="stop-color:#01579b" />
				<stop id="stop175" offset="1" style="stop-color:#03a9f4" />
			</radialGradient>
			<path id="path178"
				d="M6.9 10.5C4.8 10.5 3 8.7 3 6.6c0-2.1 1.8-3.9 3.9-3.9 2.1 0 3.9 1.7 3.9 3.9 0 1-.4 2-1.2 2.8-.6.7-1.6 1.1-2.7 1.1Z"
				style="fill:url(#SVGID_24_)" />
			<radialGradient id="SVGID_25_" cx="-781.927" cy="503.72" r="9.652"
				gradientTransform="translate(4458.785 -2783.157) scale(5.6328)" gradientUnits="userSpaceOnUse">
				<stop id="stop180" offset="0" style="stop-color:#01579b" />
				<stop id="stop182" offset="1" style="stop-color:#03a9f4" />
			</radialGradient>
			<path id="path185"
				d="M102.1 10.2c-2 0-3.7-1.6-3.7-3.6 0-1.3.7-2.5 1.8-3.1 1.1-.6 2.5-.6 3.6 0s1.8 1.8 1.8 3.1c.1 2-1.5 3.6-3.5 3.6z"
				style="fill:url(#SVGID_25_)" />
		</g>
	</g>
	<g id="g3366" transform="translate(132.677) scale(.26157)">
		<path id="path3224"
			d="M272 10.313c13.6-7.8 25.9-8.5 34.7-3.1l98.6 57.4c.2.1.3.2.5.3-8.8-5.2-21.1-4.6-34.6 3.2l-177 101.8-173.7-101.1c-27.3-15.8-27.3-41.3 0-57 27.3-15.8 71.5-15.7 98.8 0l75.6 43.1 77.1-44.6"
			class="st1" />
		<path id="path3226"
			d="M99.5 57.413c-16.4 9.4-42.9 9.4-59.3 0-16.4-9.5-16.4-24.8 0-34.2 16.4-9.4 42.9-9.4 59.3 0 16.4 9.5 16.4 24.8 0 34.2"
			class="st2" />
		<path id="path3228"
			d="M295.2 312.113c0 15.8-5.5 27-14.3 32.2l-100.8 57.9s-.1 0-.1.1c8.8-5.3 14.3-16.4 14.3-32.2v-200.2l177-101.8c27-15.6 48.9-2.6 48.9 29s-21.9 69.9-48.9 85.5l-76.1 43.9z"
			class="st3" />
		<path id="path3230"
			d="M341.9 142.313c0 19 13.1 26.8 29.3 17.4 16.2-9.4 29.3-32.3 29.3-51.3s-13.1-26.8-29.3-17.4c-16.1 9.3-29.3 32.3-29.3 51.3"
			class="st1" />
		<path id="path3232"
			d="M96.5 313.513c0 31.6 21.9 69.9 48.9 85.5 27 15.6 48.9 2.6 48.9-29v-200.1L20.5 68.813C6.8 61.013 0 50.613 0 40.313v115.7c0 10.3 6.8 20.6 20.5 28.5l76 43.8z"
			class="st2" />
		<path id="path3234"
			d="M174.7 358.713c0 19-13.1 26.8-29.3 17.4-16.2-9.4-29.3-32.3-29.3-51.3s13.1-26.8 29.3-17.4c16.2 9.3 29.3 32.3 29.3 51.3"
			class="st3" />
	</g>
</svg>